<svg width="113" height="40" viewBox="0 0 113 40" fill="none" xmlns="http://www.w3.org/2000/svg">
<g id="icon 2" filter="url(#filter0_d_16_357)">
<path id="Vector" d="M106.865 12.2058C105.095 13.6898 103.194 15.0436 101.268 16.3194C99.3411 17.5951 97.3363 18.7927 95.2796 19.9122C91.192 22.1512 86.9483 24.1039 82.5484 25.7701C81.4549 26.1867 80.3354 26.5772 79.2419 26.9417C78.1224 27.3062 77.0029 27.6707 75.8833 27.9831C73.6183 28.66 71.3532 29.2068 69.0361 29.7015C66.745 30.1961 64.4018 30.5606 62.0586 30.873C59.7155 31.1594 57.3463 31.3677 54.9771 31.4458C52.6079 31.5239 50.2387 31.4979 47.8695 31.3677L46.0991 31.2375C45.5003 31.1855 44.9275 31.1334 44.3287 31.0553C43.7299 31.0032 43.1571 30.9251 42.5583 30.847C41.9595 30.7689 41.3867 30.6908 40.7879 30.5867C38.4447 30.2222 36.1015 29.7275 33.8104 29.1026C33.2377 28.9464 32.6649 28.7902 32.0921 28.634L30.3998 28.1133C29.8271 27.9311 29.2803 27.7228 28.7336 27.5145C28.1868 27.3062 27.6141 27.124 27.0673 26.8897L25.4271 26.2388L23.8129 25.5098C23.2662 25.2755 22.7455 25.0151 22.1987 24.7548C21.678 24.4944 21.1313 24.2341 20.6106 23.9477C18.5278 22.8542 16.497 21.6306 14.5704 20.3288C12.6438 19.001 10.7693 17.5951 8.99889 16.085L8.34801 15.5123C8.11369 15.33 7.90541 15.1478 7.69713 14.9395L6.4214 13.7419C6.00484 13.3514 5.58829 12.9348 5.19775 12.5182C4.78119 12.1017 4.39065 11.6851 4.00013 11.2685C7.87937 13.794 11.8107 16.1371 15.8722 18.1158C16.8876 18.5844 17.9029 19.1051 18.9443 19.5477C19.465 19.756 19.9597 20.0164 20.5065 20.2247L22.0686 20.8495C24.1774 21.6566 26.2863 22.4116 28.4211 23.0364C36.9867 25.5879 45.9168 26.5772 54.8209 26.2388C63.7249 25.9003 72.6029 24.3122 81.2987 21.8649C85.6465 20.6412 89.9684 19.2093 94.2121 17.5951C98.4819 16.0069 102.7 14.2365 106.865 12.2058Z" fill="#7C8C03"/>
<g id="Vector_2">
<mask id="path-2-inside-1_16_357" fill="white">
<path d="M85.4163 5.68871L107.158 11.8952L102.684 31.3495"/>
</mask>
<path d="M107.158 11.8952L110.082 12.5676L110.72 9.79221L107.982 9.01047L107.158 11.8952ZM84.5928 8.57347L106.335 14.78L107.982 9.01047L86.2397 2.80395L84.5928 8.57347ZM104.235 11.2228L99.7604 30.6771L105.608 32.0219L110.082 12.5676L104.235 11.2228Z" fill="#7C8C03" mask="url(#path-2-inside-1_16_357)"/>
</g>
</g>
<defs>
<filter id="filter0_d_16_357" x="0" y="5.68872" width="111.158" height="33.801" filterUnits="userSpaceOnUse" color-interpolation-filters="sRGB">
<feFlood flood-opacity="0" result="BackgroundImageFix"/>
<feColorMatrix in="SourceAlpha" type="matrix" values="0 0 0 0 0 0 0 0 0 0 0 0 0 0 0 0 0 0 127 0" result="hardAlpha"/>
<feOffset dy="4"/>
<feGaussianBlur stdDeviation="2"/>
<feColorMatrix type="matrix" values="0 0 0 0 0 0 0 0 0 0 0 0 0 0 0 0 0 0 0.08 0"/>
<feBlend mode="normal" in2="BackgroundImageFix" result="effect1_dropShadow_16_357"/>
<feBlend mode="normal" in="SourceGraphic" in2="effect1_dropShadow_16_357" result="shape"/>
</filter>
</defs>
</svg>
