<svg width="80" height="60" viewBox="0 0 80 60" fill="none" xmlns="http://www.w3.org/2000/svg">
<g id="icon">
<path id="Vector" d="M28.75 37.5C22.5 37.5 17.5 42.5 17.5 48.75C17.5 55 22.5 60 28.75 60C35 60 40 55 40 48.75C40 42.5 35 37.5 28.75 37.5ZM28.75 55C25.25 55 22.5 52.25 22.5 48.75C22.5 45.25 25.25 42.5 28.75 42.5C32.25 42.5 35 45.25 35 48.75C35 52.25 32.25 55 28.75 55Z" fill="#D92B04"/>
<path id="Vector_2" d="M77.5 45H72.5V26.25C72.5 25 72.25 23.75 71.5 22.5L61 3.75C59.75 1.25 57.25 0 54.5 0H7.5C3.25 0 0 3.25 0 7.5V42.5C0 46.75 3.25 50 7.5 50H12.5V45H7.5C6 45 5 44 5 42.5V7.5C5 6 6 5 7.5 5H54.5C55.5 5 56.25 5.5 56.75 6.25L67.25 25C67.5 25.25 67.5 25.75 67.5 26.25V45H57.5V15H40V35H45V20H52.5V45H45V50H77.5C79 50 80 49 80 47.5C80 46 79 45 77.5 45Z" fill="#D92B04"/>
<path id="Vector_3" d="M35 15H12.5V30H35V15ZM30 25H17.5V20H30V25Z" fill="#D92B04"/>
</g>
</svg>
