<svg width="58" height="64" viewBox="0 0 58 64" fill="none" xmlns="http://www.w3.org/2000/svg">
<g id="Shopping bag">
<path id="Vector" d="M11 2L2 14V56C2 57.5913 2.63214 59.1174 3.75736 60.2426C4.88258 61.3679 6.4087 62 8 62H50C51.5913 62 53.1174 61.3679 54.2426 60.2426C55.3679 59.1174 56 57.5913 56 56V14L47 2H11Z" stroke="#D92B04" stroke-width="3" stroke-linecap="round" stroke-linejoin="round"/>
<path id="Vector_2" d="M2 14H56" stroke="#D92B04" stroke-width="3" stroke-linecap="round" stroke-linejoin="round"/>
<path id="Vector_3" d="M41 26C41 29.1826 39.7357 32.2348 37.4853 34.4853C35.2348 36.7357 32.1826 38 29 38C25.8174 38 22.7652 36.7357 20.5147 34.4853C18.2643 32.2348 17 29.1826 17 26" stroke="#D92B04" stroke-width="3" stroke-linecap="round" stroke-linejoin="round"/>
</g>
</svg>
