<svg width="49" height="49" viewBox="0 0 49 49" fill="none" xmlns="http://www.w3.org/2000/svg">
<path id="Vector" d="M29.4731 0C19.14 0 10.7231 8.41687 10.7231 18.75C10.7231 23.2406 12.2962 27.3506 14.9419 30.5869L0 45.525L2.69625 48.225L17.6362 33.2831C20.9735 36.0189 25.1579 37.5096 29.4731 37.5C39.8062 37.5 48.2231 29.0831 48.2231 18.75C48.2231 8.41687 39.8062 0 29.4731 0ZM29.4731 3.75C37.7794 3.75 44.4731 10.4438 44.4731 18.75C44.4731 27.0562 37.7794 33.75 29.4731 33.75C21.1669 33.75 14.4731 27.0562 14.4731 18.75C14.4731 10.4438 21.1669 3.75 29.4731 3.75ZM27.5981 9.375V11.3681C25.4887 11.7206 23.8481 13.5094 23.8481 15.7069C23.8481 17.1206 24.6319 18.4125 25.8994 19.0444L31.3481 21.795C31.3533 21.8887 31.3386 21.9824 31.3051 22.07C31.2716 22.1577 31.22 22.2373 31.1536 22.3036C31.0873 22.37 31.0077 22.4216 30.92 22.4551C30.8324 22.4886 30.7387 22.5033 30.645 22.4981H28.3012C28.2076 22.5033 28.1138 22.4886 28.0262 22.4551C27.9386 22.4216 27.859 22.37 27.7926 22.3036C27.7263 22.2373 27.6747 22.1577 27.6411 22.07C27.6076 21.9824 27.593 21.8887 27.5981 21.795V20.625H23.8481V21.7969C23.8481 23.9944 25.4887 25.7812 27.5981 26.1337V28.125H31.3481V26.1319C33.4575 25.7794 35.0981 23.9906 35.0981 21.7931C35.0981 20.3794 34.3144 19.0931 33.0469 18.4556L27.5981 15.705C27.5981 15.2869 27.8831 15.0019 28.3012 15.0019H30.645C31.0631 15.0019 31.3481 15.2869 31.3481 15.705V16.875H35.0981V15.7031C35.0981 13.5056 33.4575 11.7206 31.3481 11.3663V9.375H27.5981Z" fill="#7C8C03"/>
</svg>
